<svg width="28" height="31" viewBox="0 0 28 31" fill="none" xmlns="http://www.w3.org/2000/svg">
<path d="M12.8333 5.16667H4.66665C4.04781 5.16667 3.45432 5.43884 3.01673 5.92331C2.57915 6.40778 2.33331 7.06486 2.33331 7.75V25.8333C2.33331 26.5185 2.57915 27.1756 3.01673 27.66C3.45432 28.1445 4.04781 28.4167 4.66665 28.4167H21C21.6188 28.4167 22.2123 28.1445 22.6499 27.66C23.0875 27.1756 23.3333 26.5185 23.3333 25.8333V16.7917M21.5833 3.22917C22.0474 2.71531 22.6769 2.42663 23.3333 2.42663C23.9897 2.42663 24.6192 2.71531 25.0833 3.22917C25.5474 3.74302 25.8082 4.43996 25.8082 5.16667C25.8082 5.89337 25.5474 6.59031 25.0833 7.10417L14 19.375L9.33331 20.6667L10.5 15.5L21.5833 3.22917Z" stroke="#1E1E1E" stroke-width="4" stroke-linecap="round" stroke-linejoin="round"/>
</svg>
